<svg width="158" height="47" viewBox="0 0 158 47" fill="none" xmlns="http://www.w3.org/2000/svg">
<path d="M24.4743 22.0805L24.3993 22.2019C28.5009 17.7848 33.2027 15.2365 37.6044 12.8096C42.0561 10.3583 46.1577 8.12555 49.1589 4.29097L51.2597 0.941779C51.3848 0.674815 51.5348 0.383581 51.6599 0.0923469C51.6849 0.0195385 51.6099 -0.0290006 51.5599 0.0195384C48.2086 3.10176 42.7064 6.71792 34.3281 8.39251C34.3281 8.39251 33.7279 8.53813 32.8025 8.82936C30.1265 9.67879 24.7744 11.766 23.1738 15.1394C23.1488 15.1394 20.8979 19.6536 24.4743 22.0805Z" fill="#271300"/>
<path d="M17.0475 35.0555C18.5568 30.7573 20.4069 27.3587 22.4519 24.5848L12.1056 5.84253H0.25L16.877 34.7806L17.0475 35.0555Z" fill="#271300"/>
<path d="M39.3882 15.4823C34.6243 18.1016 29.7092 20.8197 25.5502 25.8359C22.7776 29.1718 20.5847 33.2243 18.9463 38.1417L24.1135 46.7409L29.9864 37.3015L41.1526 19.2877L45.8157 11.7757C45.8409 11.7263 45.7904 11.6522 45.7148 11.7016C43.7236 13.0607 41.5811 14.2715 39.3882 15.4823Z" fill="#271300"/>
<path d="M79.9313 14.2844L71.1209 32.8411H70.9272L62.1814 14.2844H65.215L71.0241 26.5802L76.8654 14.2844H79.9313Z" fill="#271300"/>
<path d="M83.6433 23.384C83.6433 18.1881 87.871 13.9604 93.0346 13.9604C98.1982 13.9604 102.426 18.1881 102.426 23.384C102.426 28.5153 98.1982 32.743 93.0023 32.743C87.871 32.743 83.6433 28.5476 83.6433 23.384ZM99.5536 23.384C99.5536 19.8018 96.6168 16.865 93.0346 16.865C89.4524 16.865 86.5478 19.8018 86.5478 23.384C86.5478 26.9663 89.4524 29.8708 93.0346 29.8708C96.6168 29.8708 99.5536 26.934 99.5536 23.384Z" fill="#271300"/>
<path d="M113.915 24.7084L107.46 14.2844H110.688L115.303 21.5457L119.95 14.2844H123.177L116.723 24.7084V32.4538H113.915V24.7084Z" fill="#271300"/>
<path d="M133.922 14.2844H131.082V32.4538H133.922V14.2844Z" fill="#271300"/>
<path d="M153.288 28.8049H144.704L143.058 32.4516H139.96L148.899 13.9272H149.061L158 32.4516H154.902L153.288 28.8049ZM152.191 26.2876L148.996 20.1558L145.801 26.2876H152.191Z" fill="#271300"/>
<path d="M99.9742 3.24582H97.3601V2.40674H103.395V3.24582H100.781V9.21623H99.9742V3.24582Z" fill="#271300"/>
<path d="M107.199 6.05353V9.21623H106.36V2.40674H107.199V5.24672H111.072V2.40674H111.879V9.21623H111.072V6.05353H107.199Z" fill="#271300"/>
<path d="M115.464 9.21623V2.40674H120.079V3.24582H116.27V5.24672H120.079V6.05353H116.27V8.40942H120.24V9.21623H115.464Z" fill="#271300"/>
<path d="M75.1217 46.1673C74.7667 46.1673 74.4117 46.0704 74.1213 45.8445C73.8308 45.6509 73.5726 45.3604 73.4113 45.0055C73.2176 44.6505 73.1531 44.2632 73.1531 43.8436C73.1531 43.4241 73.2499 43.0368 73.4113 42.6818C73.6049 42.3268 73.8308 42.0687 74.1213 41.8427C74.4117 41.6491 74.7667 41.52 75.1217 41.52C75.3799 41.52 75.6381 41.5846 75.8962 41.6814C76.1544 41.8105 76.348 41.9718 76.5417 42.1977L76.703 42.3914L76.2512 43.0691L76.0576 42.8109C75.7994 42.5205 75.4767 42.3591 75.1217 42.3591C74.8958 42.3591 74.6699 42.4237 74.4762 42.5527C74.2826 42.6818 74.1213 42.8755 74.0244 43.0691C73.8953 43.295 73.8631 43.5209 73.8631 43.8114C73.8631 44.0695 73.9276 44.3277 74.0244 44.5536C74.1535 44.7795 74.2826 44.9409 74.4762 45.07C74.6699 45.1991 74.8958 45.2636 75.1217 45.2636C75.3153 45.2636 75.4767 45.2314 75.6381 45.1345C75.7994 45.0377 75.9285 44.9409 76.0576 44.7795L76.2512 44.5214L76.703 45.1991C76.574 45.3604 76.4449 45.4895 76.3481 45.6186C76.2512 45.7154 76.0899 45.8123 75.9285 45.9091C75.6703 46.1027 75.4121 46.1673 75.1217 46.1673Z" fill="#271300"/>
<path d="M81.1883 46.1673C80.8333 46.1673 80.4784 46.0704 80.1879 45.8445C79.8974 45.6509 79.6393 45.3604 79.4779 45.0055C79.2843 44.6505 79.2197 44.2632 79.2197 43.8436C79.2197 43.4241 79.3165 43.0368 79.4779 42.6818C79.6715 42.3268 79.8974 42.0687 80.1879 41.8427C80.4784 41.6491 80.8333 41.52 81.1883 41.52C81.5433 41.52 81.8983 41.6168 82.1888 41.8427C82.4792 42.0364 82.7374 42.3268 82.8988 42.6818C83.0924 43.0368 83.157 43.4241 83.157 43.8436C83.157 44.2632 83.0601 44.6505 82.8988 45.0055C82.7052 45.3604 82.4792 45.6186 82.1888 45.8445C81.8983 46.0704 81.5433 46.1673 81.1883 46.1673ZM81.1883 45.3282C81.4143 45.3282 81.6402 45.2636 81.8338 45.1345C82.0274 45.0054 82.1888 44.8118 82.2856 44.6182C82.4147 44.3923 82.447 44.1664 82.447 43.8759C82.447 43.6177 82.3824 43.3595 82.2856 43.1336C82.1565 42.9077 82.0274 42.7464 81.8338 42.6173C81.6402 42.4882 81.4143 42.4237 81.1883 42.4237C80.9624 42.4237 80.7365 42.4882 80.5429 42.6173C80.3493 42.7464 80.1879 42.94 80.0911 43.1336C79.962 43.3595 79.9297 43.5855 79.9297 43.8759C79.9297 44.1341 79.9943 44.3923 80.0911 44.6182C80.2202 44.8441 80.3493 45.0054 80.5429 45.1345C80.7365 45.2636 80.9624 45.3282 81.1883 45.3282Z" fill="#271300"/>
<path d="M90.0659 46.1686H89.2268V43.9095L88.1941 45.975H87.6778L86.645 43.9095V46.1686H85.7737V41.5859H86.4191L87.9359 44.6518L89.4527 41.5859H90.0659V46.1686Z" fill="#271300"/>
<path d="M93.5496 46.1686H92.8396V41.5859H95.6473V42.3927H93.5496V43.4577H95.4214V44.2645H93.5496V46.1686Z" fill="#271300"/>
<path d="M99.7787 46.1673C99.4237 46.1673 99.0687 46.0704 98.7782 45.8445C98.4878 45.6509 98.2296 45.3604 98.0682 45.0055C97.8746 44.6505 97.8101 44.2632 97.8101 43.8436C97.8101 43.4241 97.9069 43.0368 98.0682 42.6818C98.2619 42.3268 98.4878 42.0687 98.7782 41.8427C99.0687 41.6491 99.4237 41.52 99.7787 41.52C100.134 41.52 100.489 41.6168 100.779 41.8427C101.07 42.0364 101.328 42.3268 101.489 42.6818C101.683 43.0368 101.747 43.4241 101.747 43.8436C101.747 44.2632 101.65 44.6505 101.489 45.0055C101.295 45.3604 101.07 45.6186 100.779 45.8445C100.489 46.0704 100.166 46.1673 99.7787 46.1673ZM99.7787 45.3282C100.005 45.3282 100.23 45.2636 100.424 45.1345C100.618 45.0054 100.779 44.8118 100.876 44.6182C101.005 44.3923 101.037 44.1664 101.037 43.8759C101.037 43.6177 100.973 43.3595 100.876 43.1336C100.747 42.9077 100.618 42.7464 100.424 42.6173C100.23 42.4882 100.005 42.4237 99.7787 42.4237C99.5528 42.4237 99.3269 42.4882 99.1332 42.6173C98.9396 42.7464 98.7782 42.94 98.6814 43.1336C98.5523 43.3595 98.5201 43.5855 98.5201 43.8759C98.5201 44.1341 98.5846 44.3923 98.6814 44.6182C98.8105 44.8441 98.9396 45.0054 99.1332 45.1345C99.3269 45.2636 99.5528 45.3282 99.7787 45.3282Z" fill="#271300"/>
<path d="M107.685 46.1686H106.749L105.749 45.0068H104.942V46.1686H104.232V41.8764V41.5859H105.878C106.136 41.5859 106.394 41.6505 106.62 41.8118C106.846 41.9732 107.04 42.1668 107.169 42.425C107.298 42.6832 107.362 42.9736 107.362 43.2964C107.362 43.6514 107.298 43.9418 107.136 44.2323C106.975 44.4905 106.781 44.7164 106.523 44.8455L107.685 46.1686ZM105.813 44.1677C106.071 44.1677 106.265 44.0709 106.426 43.9095C106.588 43.7482 106.685 43.5223 106.685 43.2641C106.685 43.0059 106.588 42.8123 106.426 42.6187C106.265 42.4573 106.039 42.3605 105.813 42.3605H104.942V44.1355H105.813V44.1677Z" fill="#271300"/>
<path d="M111.267 46.1686H110.557V42.3927H109.331V41.5859H112.461V42.3927H111.267V46.1686Z" fill="#271300"/>
<path d="M120.951 46.1686H120.177L119.693 44.8455H118.402L117.918 46.1686H117.208C117.756 44.6518 118.305 43.1027 118.854 41.5859H119.305L120.951 46.1686ZM119.435 44.0386L119.08 43.0705L118.725 44.0386H119.435Z" fill="#271300"/>
<path d="M124.952 46.1686H124.468L123.177 41.5859H123.92L124.694 44.3291L125.404 41.5859H125.888L126.598 44.3291L127.341 41.5859H128.115L126.824 46.1686H126.34L125.63 43.5223L124.952 46.1686Z" fill="#271300"/>
<path d="M134.021 46.1686H133.246L132.762 44.8455H131.471L130.987 46.1686H130.212C130.761 44.6518 131.31 43.1027 131.858 41.5859H132.31L134.021 46.1686ZM132.471 44.0386L132.116 43.0705L131.761 44.0386H132.471Z" fill="#271300"/>
<path d="M137.02 41.5859H136.31V46.1686H137.02V41.5859Z" fill="#271300"/>
<path d="M141.345 46.1686H140.635V42.3927H139.409V41.5859H142.571V42.3927H141.345V46.1686Z" fill="#271300"/>
<path d="M146.315 46.1674C146.121 46.1674 145.928 46.1351 145.734 46.1028C145.573 46.0383 145.411 46.006 145.282 45.9415C145.153 45.8769 145.088 45.8124 145.024 45.7801L144.863 45.651L145.121 44.8765L145.379 45.0701C145.411 45.1024 145.476 45.1346 145.573 45.1992C145.669 45.2315 145.766 45.296 145.895 45.3283C146.024 45.3605 146.153 45.3928 146.315 45.3928C146.573 45.3928 146.799 45.3283 146.96 45.2315C147.122 45.1346 147.186 45.0055 147.186 44.8119C147.186 44.7151 147.154 44.6506 147.089 44.6183C147.025 44.5537 146.928 44.5215 146.799 44.4892C146.67 44.4569 146.541 44.3924 146.379 44.3601C146.218 44.3278 146.057 44.2633 145.895 44.231C145.25 44.0374 144.927 43.6178 144.927 43.0047C144.927 42.5528 145.056 42.2301 145.314 41.9719C145.573 41.746 145.96 41.6169 146.412 41.6169C146.605 41.6169 146.799 41.6492 146.993 41.6815C147.154 41.746 147.315 41.7783 147.444 41.8428C147.573 41.9074 147.638 41.9719 147.703 42.0042C147.735 42.0365 147.799 42.0688 147.832 42.101L147.67 42.8756L147.38 42.6819C147.315 42.6497 147.251 42.5851 147.154 42.5528C147.057 42.5206 146.96 42.456 146.831 42.4238C146.702 42.3915 146.573 42.3592 146.444 42.3592C146.186 42.3592 145.992 42.3915 145.863 42.4883C145.734 42.5851 145.669 42.7142 145.669 42.9078C145.669 43.0047 145.702 43.1015 145.766 43.166C145.831 43.2306 145.928 43.2951 146.089 43.3274C146.218 43.3597 146.379 43.4242 146.573 43.4565C146.734 43.4887 146.863 43.521 147.025 43.5856C147.638 43.7792 147.928 44.1665 147.928 44.7151C147.928 44.941 147.896 45.1669 147.799 45.3283C147.703 45.4896 147.573 45.651 147.444 45.7478C147.283 45.8446 147.122 45.9414 146.928 46.006C146.702 46.1351 146.508 46.1674 146.315 46.1674Z" fill="#271300"/>
</svg>
